<?xml version="1.0" encoding="UTF-8"?>
<svg xmlns="http://www.w3.org/2000/svg" xmlns:xlink="http://www.w3.org/1999/xlink" viewBox="0 0 50 50" width="50px" height="50px">
<g id="surface9149469">
<path style=" stroke:none;fill-rule:nonzero;fill:rgb(0.784314%,18.82353%,27.843139%);fill-opacity:1;" d="M 27.003906 4.785156 C 21.503906 4.792969 16.085938 7.09375 11.777344 11.714844 C 8.976562 14.710938 7.382812 18.363281 6.925781 22.125 L 6.894531 22.113281 L 0.605469 39.65625 C 0.332031 40.421875 0.445312 41.273438 0.914062 41.9375 C 1.382812 42.601562 2.144531 43 2.957031 43 L 24.5 43 L 24.5 42.988281 C 29.015625 43.023438 33.503906 41.296875 36.75 37.816406 C 41.789062 32.417969 41.660156 23.714844 36.476562 18.34375 C 34.207031 15.992188 31.257812 14.347656 28.027344 14.019531 C 24.792969 13.691406 21.300781 14.851562 18.636719 17.679688 C 14.964844 21.582031 15.03125 27.929688 18.804688 31.804688 C 20.109375 33.144531 21.835938 34.082031 23.804688 34.402344 C 25.773438 34.71875 28.125 34.277344 29.851562 32.617188 C 31.257812 31.257812 31.699219 29.425781 31.546875 27.738281 C 31.390625 26.046875 30.585938 24.269531 28.878906 23.21875 C 28.117188 22.734375 27.15625 22.695312 26.359375 23.121094 C 25.5625 23.546875 25.058594 24.367188 25.035156 25.269531 C 25.015625 26.171875 25.480469 27.015625 26.257812 27.476562 C 26.328125 27.519531 26.527344 27.773438 26.566406 28.195312 C 26.601562 28.613281 26.429688 28.96875 26.378906 29.015625 C 25.894531 29.484375 25.394531 29.59375 24.605469 29.464844 C 23.816406 29.335938 22.890625 28.832031 22.386719 28.316406 C 22.386719 28.3125 22.386719 28.3125 22.386719 28.3125 C 20.699219 26.582031 20.695312 22.792969 22.28125 21.105469 C 23.992188 19.289062 25.695312 18.808594 27.523438 18.992188 C 29.347656 19.179688 31.320312 20.199219 32.878906 21.8125 C 36.179688 25.230469 36.226562 31.050781 33.09375 34.40625 C 28.925781 38.871094 21.59375 39.234375 16.800781 35.132812 C 10.558594 29.789062 9.988281 20.957031 15.433594 15.121094 C 18.910156 11.398438 22.855469 9.789062 27.007812 9.78125 C 31.160156 9.777344 35.59375 11.453125 39.703125 14.78125 C 40.589844 15.5 41.855469 15.527344 42.773438 14.84375 L 48.539062 10.539062 C 49.257812 10.007812 49.640625 9.132812 49.539062 8.238281 C 49.433594 7.347656 48.863281 6.582031 48.039062 6.230469 C 47.210938 5.875 46.261719 5.992188 45.546875 6.535156 L 41.222656 9.761719 C 36.785156 6.609375 31.902344 4.777344 27.003906 4.785156 Z M 8.546875 32.316406 C 9.5 34.378906 10.824219 36.3125 12.542969 38 L 6.511719 38 Z M 8.546875 32.316406 "/>
</g>
</svg>
